HIERARCHY
ROOT Hips
{
	OFFSET 0.00000 0.00000 0.00000
	CHANNELS 6 Xposition Yposition Zposition Zrotation Yrotation Xrotation 
	JOINT LHipJoint
	{
		OFFSET 0 0 0
		CHANNELS 3 Zrotation Yrotation Xrotation
		JOINT LeftHip
		{
			OFFSET 1.77779 -1.88989 0.48267
			CHANNELS 3 Zrotation Yrotation Xrotation
			JOINT LeftKnee
			{
				OFFSET 2.53442 -6.96327 0.00000
				CHANNELS 3 Zrotation Yrotation Xrotation
				JOINT LeftAnkle
				{
					OFFSET 2.71068 -7.44755 0.00000
					CHANNELS 3 Zrotation Yrotation Xrotation
					JOINT LeftToe
					{
						OFFSET 0.17992 -0.49431 2.22524
						CHANNELS 3 Zrotation Yrotation Xrotation
						End Site
						{
							OFFSET 0.00000 -0.00000 1.14687
						}
					}
				}
			}
		}
	}
	JOINT RHipJoint
	{
		OFFSET 0 0 0
		CHANNELS 3 Zrotation Yrotation Xrotation
		JOINT RightHip
		{
			OFFSET -1.58469 -1.88989 0.48267
			CHANNELS 3 Zrotation Yrotation Xrotation
			JOINT RightKnee
			{
				OFFSET -2.60386 -7.15404 0.00000
				CHANNELS 3 Zrotation Yrotation Xrotation
				JOINT RightAnkle
				{
					OFFSET -2.73334 -7.50979 0.00000
					CHANNELS 3 Zrotation Yrotation Xrotation
					JOINT RightToe
					{
						OFFSET -0.25618 -0.70384 2.21822
						CHANNELS 3 Zrotation Yrotation Xrotation
						End Site
						{
							OFFSET -0.00000 -0.00000 1.16381
						}
					}
				}
			}
		}
	}
	JOINT lowerback
	{
		OFFSET 0 0 0
		CHANNELS 3 Zrotation Yrotation Xrotation
		JOINT Chest
		{
			OFFSET 0.03410 2.01612 -0.22230
			CHANNELS 3 Zrotation Yrotation Xrotation
			JOINT Chest2
			{
				OFFSET 0.03465 2.03012 0.00937
				CHANNELS 3 Zrotation Yrotation Xrotation
				JOINT lowerneck
				{
					OFFSET 0 0 0
					CHANNELS 3 Zrotation Yrotation Xrotation
					JOINT Neck
					{
						OFFSET -0.00219 1.70459 0.20857
						CHANNELS 3 Zrotation Yrotation Xrotation
						JOINT Head
						{
							OFFSET 0.02518 1.72339 -0.22179
							CHANNELS 3 Zrotation Yrotation Xrotation
							End Site
							{
								OFFSET 0.00282 1.74122 -0.09823
							}
						}
					}
				}
				JOINT LeftCollar
				{
					OFFSET 0 0 0
					CHANNELS 3 Zrotation Yrotation Xrotation
					JOINT LeftShoulder
					{
						OFFSET 3.36358 1.00547 -0.37661
CHANNELS 3 Zrotation Xrotation Yrotation
						JOINT LeftElbow
						{
OFFSET 0 -5.065070 0.000000
CHANNELS 3 Zrotation Xrotation Yrotation
							JOINT LeftWrist
							{
OFFSET 0 -3.601960 0.000000
CHANNELS 3 Zrotation Xrotation Yrotation
								JOINT lhand
								{
									OFFSET 0 0 0
CHANNELS 3 Zrotation Xrotation Yrotation
									JOINT LFingers
									{
OFFSET 0 -0.450350 0.000000
CHANNELS 3 Zrotation Xrotation Yrotation
										End Site
										{
OFFSET 0 -0.363080 0.000000
										}
									}
								}
								JOINT LThumb
								{
OFFSET 0 0.000000 0.000000
CHANNELS 3 Zrotation Xrotation Yrotation
									End Site
									{
OFFSET 0 -0.368620 0.368620
									}
								}
							}
						}
					}
				}
				JOINT RightCollar
				{
					OFFSET 0 0 0
					CHANNELS 3 Zrotation Yrotation Xrotation
					JOINT RightShoulder
					{
						OFFSET -3.50159 0.80383 -0.71526
CHANNELS 3 Zrotation Xrotation Yrotation
						JOINT RightElbow
						{
OFFSET 0 -5.363940 0.000000
CHANNELS 3 Zrotation Xrotation Yrotation
							JOINT RightWrist
							{
OFFSET 0 -3.580350 0.000000
CHANNELS 3 Zrotation Xrotation Yrotation
								JOINT rhand
								{
									OFFSET 0 0 0
CHANNELS 3 Zrotation Xrotation Yrotation
									JOINT RFingers
									{
OFFSET 0 -0.663750 0.000000
CHANNELS 3 Zrotation Xrotation Yrotation
										End Site
										{
OFFSET 0 -0.535130 0.000000
										}
									}
								}
								JOINT RThumb
								{
OFFSET 0 0.000000 0.000000
CHANNELS 3 Zrotation Xrotation Yrotation
									End Site
									{
OFFSET 0 -0.543300 0.543300
									}
								}
							}
						}
					}
				}
			}
		}
	}
}
MOTION
Frames: 6
Frame Time: 0.008333333333333333
1.210600 17.752100 -24.009100 3.919900 0.678200 -2.273500 0.000000 0.000000 0.000000 -28.773900 0.635800 7.552800 0.971400 6.274600 17.583200 0.827900 -7.008000 -16.257300 0.020300 0.918900 2.525800 0.000000 0.000000 0.000000 13.062300 15.321200 -26.740900 -1.542500 -7.840000 22.229100 -0.121100 -8.349800 -14.030300 -0.004500 -0.433400 1.190800 -4.782400 -1.338900 10.725000 1.127500 -2.295100 0.671000 4.219700 -1.012100 -5.079800 -2.272000 -2.323100 -16.266000 -0.605400 -2.497700 20.207600 -0.142000 -1.414900 9.051400 -0.000000 0.000000 0.000000 8.387700 -6.104000 -28.303100 15.047700 -24.212500 3.245500 30.576600 2.867200 -17.351600 0.000000 0.000000 0.000000 -7.125000 0.000000 0.000000 2.633000 49.908200 -0.318800 -0.000000 0.000000 0.000000 -0.304700 2.333700 4.584900 -12.214300 -20.125300 -2.175500 -18.294100 -1.462800 -20.839800 0.000000 0.000000 0.000000 7.125000 0.000000 -0.000000 6.544000 8.249100 5.574900
1.198006 17.747856 -23.888359 4.157892 0.839804 -2.204094 0.000000 0.000000 0.000000 -28.901623 1.021638 8.222147 0.892343 6.018264 16.838287 0.803943 -7.241337 -16.042854 0.010512 0.631421 1.735301 0.000000 0.000000 0.000000 12.398976 16.066455 -26.225970 -1.299717 -7.207751 20.338993 -0.110148 -8.720648 -14.313330 -0.001420 -0.120185 0.330211 -5.211565 -1.428703 10.723768 1.210253 -2.462933 0.626783 4.574668 -1.083217 -5.085960 -2.493975 -2.304072 -16.197073 -0.622101 -2.411662 20.241892 -0.099699 -1.394092 9.053385 0.000000 0.000000 0.000000 8.259977 -6.254447 -28.115143 15.140446 -24.341250 3.283625 30.787760 2.617298 -16.787936 0.000000 0.000000 0.000000 -7.125000 0.000000 0.000000 2.908501 49.307300 -0.307301 0.000000 0.000000 0.000000 -0.499980 2.431854 4.511524 -12.107864 -19.966160 -2.139086 -17.931808 -1.424880 -21.767742 0.000000 0.000000 0.000000 7.125000 0.000000 0.000000 6.833738 7.346552 5.949581
1.186039 17.741842 -23.766326 4.324676 1.028268 -2.166972 0.000000 0.000000 0.000000 -28.972970 1.300260 8.874265 0.832841 5.820961 16.266115 0.785706 -7.431434 -15.881316 0.008583 0.043175 0.118579 0.000000 0.000000 0.000000 11.831653 16.721503 -25.720633 -1.086155 -6.609999 18.569975 -0.102776 -9.101273 -14.671626 -0.000037 0.043828 -0.120403 -5.506765 -1.528320 10.754376 1.276108 -2.630877 0.564229 4.838137 -1.155441 -5.134107 -2.693333 -2.274860 -16.096270 -0.630058 -2.320569 20.355287 -0.057731 -1.368857 9.076437 0.000000 0.000000 0.000000 8.169887 -6.315572 -27.963897 15.246290 -24.487893 3.327395 30.980215 2.719964 -16.822631 0.000000 0.000000 0.000000 -7.125000 0.000000 0.000000 3.098738 49.380579 -0.335943 0.000000 0.000000 0.000000 -0.631359 2.610401 4.379449 -12.036516 -19.859410 -2.114737 -17.718534 -1.273214 -22.140859 0.000000 0.000000 0.000000 7.125000 0.000000 0.000000 6.992868 6.992889 6.136505
1.174485 17.734521 -23.643248 4.421467 1.237891 -2.150310 0.000000 0.000000 0.000000 -28.985127 1.481286 9.505952 0.789960 5.673291 15.839376 0.771279 -7.588605 -15.755050 0.012316 -0.701811 -1.928613 0.000000 0.000000 0.000000 11.356205 17.305025 -25.223045 -0.899788 -6.042262 16.908044 -0.101070 -9.490618 -15.131855 -0.000105 0.077726 -0.213503 -5.675047 -1.636928 10.801225 1.324836 -2.797751 0.485059 5.012853 -1.228499 -5.213753 -2.859471 -2.236460 -15.954710 -0.626408 -2.229672 20.510607 -0.017163 -1.340230 9.105998 0.000000 0.000000 0.000000 8.123034 -6.306201 -27.846813 15.358880 -24.643648 3.374155 31.166187 3.164635 -17.441418 0.000000 0.000000 0.000000 -7.125000 0.000000 0.000000 3.216511 50.114153 -0.406367 0.000000 0.000000 0.000000 -0.700049 2.855794 4.215775 -11.995120 -19.797369 -2.100689 -17.671085 -1.045324 -21.985104 0.000000 0.000000 0.000000 7.125000 0.000000 0.000000 7.012523 7.159171 6.131674
1.161480 17.729661 -23.520864 4.410789 1.426122 -2.049213 0.000000 0.000000 0.000000 -28.867603 1.592582 10.070369 0.745879 5.515589 15.385501 0.744106 -7.793674 -15.510966 0.003555 -0.259914 -0.714150 0.000000 0.000000 0.000000 10.996240 17.954933 -24.720094 -0.739485 -5.480582 15.287825 -0.130161 -9.884190 -16.035840 -0.000174 0.081901 -0.225070 -5.697429 -1.752605 10.718267 1.341947 -2.950867 0.394845 5.063504 -1.300232 -5.241337 -2.861661 -2.192379 -15.653747 -0.573977 -2.192163 20.362076 0.010216 -1.316274 8.999631 0.000000 0.000000 0.000000 8.206745 -6.366435 -27.762417 15.418840 -24.726264 3.399207 31.464549 4.087580 -18.915091 0.000000 0.000000 0.000000 -7.125000 0.000000 0.000000 3.339648 51.836838 -0.564823 0.000000 0.000000 0.000000 -0.673765 3.078659 4.271834 -11.953093 -19.734192 -2.086452 -18.077046 -1.066132 -21.186939 0.000000 0.000000 0.000000 7.125000 0.000000 0.000000 6.704030 7.922428 5.758499
1.146954 17.728222 -23.400381 4.332278 1.621194 -1.959055 0.000000 0.000000 0.000000 -28.649217 1.702568 10.536712 0.717765 5.413639 15.092296 0.719339 -8.065012 -15.301939 0.001087 -0.181890 -0.499735 0.000000 0.000000 0.000000 10.774728 18.548792 -24.202570 -0.607818 -4.978204 13.848846 -0.150634 -10.385932 -16.935601 -0.012407 0.513516 -1.411631 -5.690246 -1.855905 10.691357 1.408730 -3.083626 0.331114 5.149254 -1.362461 -5.273441 -2.862711 -2.183018 -15.423362 -0.578313 -2.187768 20.119526 0.013773 -1.313013 8.874088 0.000000 0.000000 0.000000 8.229930 -6.506708 -27.651961 15.462454 -24.786326 3.417459 31.533564 4.625449 -19.911908 0.000000 0.000000 0.000000 -7.125000 0.000000 0.000000 3.274745 52.974412 -0.641254 0.000000 0.000000 0.000000 -0.682200 3.193439 4.112399 -11.874489 -19.616023 -2.060050 -18.284156 -0.919555 -20.773553 0.000000 0.000000 0.000000 7.125000 0.000000 0.000000 6.546197 8.318645 5.567830
